G04 EAGLE Gerber RS-274X export*
G75*
%MOMM*%
%FSLAX34Y34*%
%LPD*%
%INSolderpaste Top*%
%IPPOS*%
%AMOC8*
5,1,8,0,0,1.08239X$1,22.5*%
G01*
%ADD10R,4.600000X1.350000*%
%ADD11R,9.400000X10.800000*%
%ADD12R,1.500000X1.300000*%
%ADD13R,1.300000X1.500000*%
%ADD14R,0.600000X1.250000*%
%ADD15R,1.181100X0.609600*%
%ADD16R,1.168400X1.600200*%
%ADD17R,1.212000X0.700000*%
%ADD18R,3.180000X2.250000*%


D10*
X620300Y787400D03*
X620300Y838200D03*
D11*
X528800Y812800D03*
D10*
X620300Y368300D03*
X620300Y419100D03*
D11*
X528800Y393700D03*
D10*
X620300Y647700D03*
X620300Y698500D03*
D11*
X528800Y673100D03*
D12*
X685800Y739800D03*
X685800Y758800D03*
X685800Y682600D03*
X685800Y663600D03*
D13*
X193700Y520700D03*
X212700Y520700D03*
D14*
X701700Y139900D03*
X711200Y139900D03*
X720700Y139900D03*
X720700Y164900D03*
X711200Y164900D03*
X701700Y164900D03*
D10*
X620300Y508000D03*
X620300Y558800D03*
D11*
X528800Y533400D03*
D12*
X698500Y466700D03*
X698500Y447700D03*
X711200Y314300D03*
X711200Y295300D03*
D10*
X671100Y228600D03*
X671100Y279400D03*
D11*
X579600Y254000D03*
D13*
X612800Y139700D03*
X631800Y139700D03*
X581000Y165100D03*
X562000Y165100D03*
D15*
X264732Y504800D03*
X264732Y495300D03*
X264732Y485800D03*
X294069Y485800D03*
X294069Y495300D03*
X294069Y504800D03*
X264732Y415900D03*
X264732Y406400D03*
X264732Y396900D03*
X294069Y396900D03*
X294069Y406400D03*
X294069Y415900D03*
D13*
X193700Y482600D03*
X212700Y482600D03*
X193700Y419100D03*
X212700Y419100D03*
X193700Y381000D03*
X212700Y381000D03*
D16*
X703580Y76200D03*
X718820Y76200D03*
X617220Y76200D03*
X601980Y76200D03*
D15*
X264732Y327000D03*
X264732Y317500D03*
X264732Y308000D03*
X294069Y308000D03*
X294069Y317500D03*
X294069Y327000D03*
X264732Y238100D03*
X264732Y228600D03*
X264732Y219100D03*
X294069Y219100D03*
X294069Y228600D03*
X294069Y238100D03*
D13*
X193700Y330200D03*
X212700Y330200D03*
X193700Y241300D03*
X212700Y241300D03*
X193700Y203200D03*
X212700Y203200D03*
X193700Y292100D03*
X212700Y292100D03*
D16*
X426720Y76200D03*
X411480Y76200D03*
X500380Y76200D03*
X515620Y76200D03*
D15*
X264732Y149200D03*
X264732Y139700D03*
X264732Y130200D03*
X294069Y130200D03*
X294069Y139700D03*
X294069Y149200D03*
D13*
X193700Y114300D03*
X212700Y114300D03*
X193700Y152400D03*
X212700Y152400D03*
D16*
X322580Y76200D03*
X337820Y76200D03*
D17*
X339360Y387350D03*
X339360Y374650D03*
X339360Y361950D03*
X339360Y349250D03*
X397240Y349250D03*
X397240Y361950D03*
X397240Y374650D03*
X397240Y387350D03*
X339360Y273050D03*
X339360Y260350D03*
X339360Y247650D03*
X339360Y234950D03*
X397240Y234950D03*
X397240Y247650D03*
X397240Y260350D03*
X397240Y273050D03*
X352060Y158750D03*
X352060Y146050D03*
X352060Y133350D03*
X352060Y120650D03*
X409940Y120650D03*
X409940Y133350D03*
X409940Y146050D03*
X409940Y158750D03*
D18*
X406400Y834650D03*
X406400Y765550D03*
X406400Y720350D03*
X406400Y651250D03*
X419100Y529850D03*
X419100Y460750D03*
M02*
