M48
;GenerationSoftware,Autodesk,EAGLE,9.6.2*%
;CreationDate,2022-10-21T17:28:42Z*%
FMAT,2
ICI,OFF
METRIC,TZ,000.000
T12C0.350
T11C0.500
T10C0.650
T9C0.750
T8C0.900
T7C1.000
T6C1.060
T5C1.070
T4C1.600
T3C1.640
T2C2.640
T1C3.300
%
G90
M71
T1
X5080Y5080
X5080Y82550
X134620Y82550
X110490Y26670
T2
X90170Y29210
X90170Y40010
X95380Y29210
X95380Y40010
X100590Y29210
X100590Y40010
X120650Y29210
X120650Y40010
X125860Y29210
X125860Y40010
X131070Y29210
X131070Y40010
T3
X14635Y63395
T4
X90170Y16270
X93570Y6350
X90170Y6350
X113890Y16270
X110490Y16270
X113890Y6350
X110490Y6350
X103730Y16270
X100330Y16270
X103730Y6350
X100330Y6350
X99470Y53580
X102870Y53580
X99470Y63500
X102870Y63500
X109630Y53580
X113030Y53580
X109630Y63500
X113030Y63500
X89310Y53580
X92710Y53580
X124050Y6350
X120650Y16270
X124050Y16270
X92710Y63500
X83410Y16270
X80010Y16270
X83410Y6350
X80010Y6350
X134210Y16270
X130810Y16270
X134210Y6350
X130810Y6350
X93570Y16270
X89310Y63500
X123190Y63500
X119790Y63500
X123190Y53580
X119790Y53580
X133350Y63500
X129950Y63500
X133350Y53580
X129950Y53580
X120650Y6350
T5
X9120Y47790
X9120Y50790
X10060Y53790
X10060Y14790
X6120Y44790
X6120Y17790
X6120Y20790
X6120Y23790
X6120Y26790
X6120Y29790
X6120Y32790
X6120Y35790
X6120Y38790
X6120Y41790
X6120Y47790
X6120Y50790
X9120Y17790
X9120Y20790
X9120Y23790
X9120Y26790
X9120Y29790
X9120Y32790
X9120Y35790
X9120Y38790
X9120Y41790
X9120Y44790
T6
X7805Y65145
X7805Y68645
X12405Y61645
X12405Y65145
X12405Y68645
X7805Y61645
T7
X3810Y71120
X53340Y17780
T8
X54610Y5080
X74930Y6350
X44450Y5080
T9
X33020Y3810
X36830Y8890
T10
X11430Y19050
X38100Y29210
X25046Y19966
X29210Y26670
X36964Y25534
X26670Y29210
T11
X16510Y48260
X13970Y40640
T12
X60960Y76200
X46990Y60960
X30480Y39370
X39370Y33020
X48260Y13970
X15240Y46990
X34290Y40033
X66040Y44450
X38100Y36830
X43180Y30480
X30480Y11430
X30480Y8890
X36830Y22860
X60960Y34290
X59690Y17780
X33020Y41910
X36830Y43180
X40640Y30480
X73660Y31750
X48260Y16510
X41910Y20320
X30480Y44450
X52070Y33020
M30