G04 EAGLE Gerber RS-274X export*
G75*
%MOMM*%
%FSLAX34Y34*%
%LPD*%
%IN*%
%IPPOS*%
%AMOC8*
5,1,8,0,0,1.08239X$1,22.5*%
G01*
%ADD10C,0.254000*%


D10*
X0Y0D02*
X1409500Y0D01*
X1409500Y885700D01*
X0Y885700D01*
X0Y0D01*
X1088400Y266160D02*
X1088471Y265082D01*
X1088612Y264011D01*
X1088822Y262951D01*
X1089102Y261908D01*
X1089449Y260885D01*
X1089863Y259887D01*
X1090341Y258918D01*
X1090881Y257982D01*
X1091481Y257084D01*
X1092139Y256227D01*
X1092851Y255415D01*
X1093615Y254651D01*
X1094427Y253939D01*
X1095284Y253281D01*
X1096182Y252681D01*
X1097118Y252141D01*
X1098087Y251663D01*
X1099085Y251249D01*
X1100108Y250902D01*
X1101151Y250622D01*
X1102211Y250412D01*
X1103282Y250271D01*
X1104360Y250200D01*
X1105440Y250200D01*
X1106518Y250271D01*
X1107589Y250412D01*
X1108649Y250622D01*
X1109692Y250902D01*
X1110715Y251249D01*
X1111713Y251663D01*
X1112682Y252141D01*
X1113618Y252681D01*
X1114516Y253281D01*
X1115373Y253939D01*
X1116185Y254651D01*
X1116949Y255415D01*
X1117662Y256227D01*
X1118319Y257084D01*
X1118919Y257982D01*
X1119460Y258918D01*
X1119937Y259887D01*
X1120351Y260885D01*
X1120698Y261908D01*
X1120978Y262951D01*
X1121188Y264011D01*
X1121329Y265082D01*
X1121400Y266160D01*
X1121400Y267240D01*
X1121329Y268318D01*
X1121188Y269389D01*
X1120978Y270449D01*
X1120698Y271492D01*
X1120351Y272515D01*
X1119937Y273513D01*
X1119460Y274482D01*
X1118919Y275418D01*
X1118319Y276316D01*
X1117662Y277173D01*
X1116949Y277985D01*
X1116185Y278749D01*
X1115373Y279462D01*
X1114516Y280119D01*
X1113618Y280719D01*
X1112682Y281260D01*
X1111713Y281737D01*
X1110715Y282151D01*
X1109692Y282498D01*
X1108649Y282778D01*
X1107589Y282988D01*
X1106518Y283129D01*
X1105440Y283200D01*
X1104360Y283200D01*
X1103282Y283129D01*
X1102211Y282988D01*
X1101151Y282778D01*
X1100108Y282498D01*
X1099085Y282151D01*
X1098087Y281737D01*
X1097118Y281260D01*
X1096182Y280719D01*
X1095284Y280119D01*
X1094427Y279462D01*
X1093615Y278749D01*
X1092851Y277985D01*
X1092139Y277173D01*
X1091481Y276316D01*
X1090881Y275418D01*
X1090341Y274482D01*
X1089863Y273513D01*
X1089449Y272515D01*
X1089102Y271492D01*
X1088822Y270449D01*
X1088612Y269389D01*
X1088471Y268318D01*
X1088400Y267240D01*
X1088400Y266160D01*
X146753Y642150D02*
X147555Y642071D01*
X148345Y641914D01*
X149116Y641680D01*
X149860Y641372D01*
X150571Y640992D01*
X151241Y640544D01*
X151863Y640033D01*
X152433Y639463D01*
X152944Y638841D01*
X153392Y638171D01*
X153772Y637460D01*
X154080Y636716D01*
X154314Y635945D01*
X154471Y635155D01*
X154550Y634353D01*
X154550Y633547D01*
X154471Y632745D01*
X154314Y631955D01*
X154080Y631184D01*
X153772Y630440D01*
X153392Y629729D01*
X152944Y629059D01*
X152433Y628437D01*
X151863Y627867D01*
X151241Y627356D01*
X150571Y626908D01*
X149860Y626528D01*
X149116Y626220D01*
X148345Y625986D01*
X147555Y625829D01*
X146753Y625750D01*
X145947Y625750D01*
X145145Y625829D01*
X144355Y625986D01*
X143584Y626220D01*
X142840Y626528D01*
X142129Y626908D01*
X141459Y627356D01*
X140837Y627867D01*
X140267Y628437D01*
X139756Y629059D01*
X139308Y629729D01*
X138928Y630440D01*
X138620Y631184D01*
X138386Y631955D01*
X138229Y632745D01*
X138150Y633547D01*
X138150Y634353D01*
X138229Y635155D01*
X138386Y635945D01*
X138620Y636716D01*
X138928Y637460D01*
X139308Y638171D01*
X139756Y638841D01*
X140267Y639463D01*
X140837Y640033D01*
X141459Y640544D01*
X142129Y640992D01*
X142840Y641372D01*
X143584Y641680D01*
X144355Y641914D01*
X145145Y642071D01*
X145947Y642150D01*
X146753Y642150D01*
M02*
