G04 EAGLE Gerber RS-274X export*
G75*
%MOMM*%
%FSLAX34Y34*%
%LPD*%
%INSoldermask Bottom*%
%IPPOS*%
%AMOC8*
5,1,8,0,0,1.08239X$1,22.5*%
G01*
%ADD10C,4.163200*%
%ADD11C,2.603200*%
%ADD12C,6.045200*%
%ADD13C,3.503200*%
%ADD14C,1.793200*%
%ADD15C,1.843200*%
%ADD16C,1.808200*%
%ADD17C,1.703200*%
%ADD18C,0.959600*%
%ADD19C,1.109600*%
%ADD20C,1.259600*%
%ADD21C,1.359600*%
%ADD22C,1.553200*%


D10*
X901700Y292100D03*
X901700Y400100D03*
X953800Y292100D03*
X953800Y400100D03*
X1005900Y292100D03*
X1005900Y400100D03*
X1206500Y292100D03*
X1206500Y400100D03*
X1258600Y292100D03*
X1258600Y400100D03*
X1310700Y292100D03*
X1310700Y400100D03*
D11*
X1231900Y635000D03*
X1197900Y635000D03*
X1231900Y535800D03*
X1197900Y535800D03*
X1333500Y635000D03*
X1299500Y635000D03*
X1333500Y535800D03*
X1299500Y535800D03*
X1206500Y63500D03*
X1240500Y63500D03*
X1206500Y162700D03*
X1240500Y162700D03*
X927100Y635000D03*
X893100Y635000D03*
X927100Y535800D03*
X893100Y535800D03*
X1130300Y635000D03*
X1096300Y635000D03*
X1130300Y535800D03*
X1096300Y535800D03*
X1028700Y635000D03*
X994700Y635000D03*
X1028700Y535800D03*
X994700Y535800D03*
X1003300Y63500D03*
X1037300Y63500D03*
X1003300Y162700D03*
X1037300Y162700D03*
X1104900Y63500D03*
X1138900Y63500D03*
X1104900Y162700D03*
X1138900Y162700D03*
X901700Y63500D03*
X935700Y63500D03*
X901700Y162700D03*
X935700Y162700D03*
X1308100Y63500D03*
X1342100Y63500D03*
X1308100Y162700D03*
X1342100Y162700D03*
X800100Y63500D03*
X834100Y63500D03*
X800100Y162700D03*
X834100Y162700D03*
D12*
X50800Y50800D03*
X1346200Y825500D03*
X50800Y825500D03*
D13*
X1104900Y266700D03*
D14*
X78050Y616450D03*
X78050Y651450D03*
X78050Y686450D03*
X124050Y616450D03*
X124050Y651450D03*
X124050Y686450D03*
D15*
X146350Y633950D03*
D16*
X61200Y177900D03*
X61200Y207900D03*
X61200Y237900D03*
X61200Y267900D03*
X61200Y297900D03*
X61200Y327900D03*
X61200Y357900D03*
X61200Y387900D03*
X61200Y417900D03*
X61200Y447900D03*
X61200Y477900D03*
X61200Y507900D03*
X91200Y177900D03*
X91200Y207900D03*
X91200Y237900D03*
X91200Y267900D03*
X91200Y297900D03*
X91200Y327900D03*
X91200Y357900D03*
X91200Y387900D03*
X91200Y417900D03*
X91200Y447900D03*
X91200Y477900D03*
X91200Y507900D03*
X100600Y537900D03*
X100600Y147900D03*
D17*
X38100Y711200D03*
D18*
X609600Y762000D03*
X469900Y609600D03*
D19*
X165100Y482600D03*
D18*
X609600Y342900D03*
X152400Y469900D03*
D17*
X533400Y177800D03*
D18*
X482600Y139700D03*
X393700Y330200D03*
X304800Y393700D03*
D20*
X369636Y255336D03*
X292100Y266700D03*
X266700Y292100D03*
X250460Y199660D03*
X381000Y292100D03*
X114300Y190500D03*
D18*
X660400Y444500D03*
X736600Y317500D03*
X520700Y330200D03*
X368300Y431800D03*
X330200Y419100D03*
D19*
X139700Y406400D03*
D18*
X596900Y177800D03*
D21*
X368300Y88900D03*
X330200Y38100D03*
D18*
X304800Y88900D03*
X304800Y114300D03*
X431800Y304800D03*
X381000Y368300D03*
X342900Y400332D03*
X304800Y444500D03*
D22*
X749300Y63500D03*
D18*
X482600Y165100D03*
X406400Y304800D03*
D22*
X444500Y50800D03*
D18*
X419100Y203200D03*
X368300Y228600D03*
D22*
X546100Y50800D03*
M02*
